<svg id="visual" viewBox="0 0 900 600" width="900" height="600" xmlns="http://www.w3.org/2000/svg" xmlns:xlink="http://www.w3.org/1999/xlink" version="1.1"><rect width="900" height="600" fill="#FFFFFF"></rect><g><g transform="translate(842 264)"><path d="M86.6 -25.1C99.9 12.6 89.6 60.9 57.6 85.8C25.5 110.7 -28.5 112 -61.1 87.5C-93.6 63 -104.9 12.7 -91.2 -25.7C-77.4 -64 -38.7 -90.4 -1 -90C36.7 -89.7 73.4 -62.7 86.6 -25.1Z" stroke="#2bb354" fill="none" stroke-width="20"></path></g><g transform="translate(293 348)"><path d="M68.3 -25.1C77.3 5.8 65.9 40.4 39.8 60.8C13.7 81.2 -27.1 87.3 -51.1 70C-75.1 52.6 -82.3 11.8 -71 -22.2C-59.7 -56.1 -29.8 -83.1 -0.1 -83.1C29.6 -83 59.2 -55.9 68.3 -25.1Z" stroke="#2bb354" fill="none" stroke-width="20"></path></g><g transform="translate(179 8)"><path d="M95.5 -34.7C106.3 2.1 85.4 45.5 53 67.8C20.6 90.1 -23.3 91.3 -54.4 69.9C-85.6 48.5 -103.9 4.4 -92.7 -33C-81.4 -70.3 -40.7 -100.9 0.8 -101.2C42.4 -101.4 84.8 -71.4 95.5 -34.7Z" stroke="#2bb354" fill="none" stroke-width="20"></path></g></g></svg>